<svg width="800" height="800" xmlns="http://www.w3.org/2000/svg">
  <defs>
    <linearGradient id="civilGrad2" x1="0%" y1="0%" x2="0%" y2="100%">
      <stop offset="0%" style="stop-color:#1e3a5f;stop-opacity:1" />
      <stop offset="100%" style="stop-color:#00b4d8;stop-opacity:1" />
    </linearGradient>
  </defs>
  <rect width="800" height="800" fill="url(#civilGrad2)"/>
  <!-- Silhouette of man in civilian clothes, profile left -->
  <g fill="#4a2c7a" opacity="0.9">
    <!-- Head -->
    <ellipse cx="200" cy="200" rx="75" ry="85"/>
    <!-- Shoulders -->
    <path d="M 125 310 Q 125 350 145 350 Q 165 350 185 340 Q 200 335 215 340 Q 235 350 255 350 Q 275 350 275 310"/>
    <!-- Upper body -->
    <ellipse cx="200" cy="440" rx="85" ry="110"/>
    <!-- Short hair -->
    <path d="M 125 115 Q 110 105 105 125 Q 100 145 115 155 Q 135 160 155 150 Q 175 140 200 145 Q 225 140 245 150 Q 265 160 285 155 Q 300 145 295 125 Q 290 105 275 115 L 200 115 Z"/>
    <!-- Collar -->
    <path d="M 150 320 L 180 340 L 200 330 L 220 340 L 250 320" stroke="#4a2c7a" stroke-width="3" fill="none"/>
  </g>
</svg>

