<svg width="800" height="800" xmlns="http://www.w3.org/2000/svg">
  <defs>
    <linearGradient id="civilGrad" x1="0%" y1="0%" x2="0%" y2="100%">
      <stop offset="0%" style="stop-color:#1e3a5f;stop-opacity:1" />
      <stop offset="100%" style="stop-color:#00b4d8;stop-opacity:1" />
    </linearGradient>
  </defs>
  <rect width="800" height="800" fill="url(#civilGrad)"/>
  <!-- Silhouette of woman in civilian clothes, profile left -->
  <g fill="#4a2c7a" opacity="0.9">
    <!-- Head -->
    <ellipse cx="200" cy="200" rx="80" ry="90"/>
    <!-- Shoulders -->
    <path d="M 120 320 Q 120 360 140 360 Q 160 360 180 350 Q 200 345 220 350 Q 240 360 260 360 Q 280 360 280 320"/>
    <!-- Upper body -->
    <ellipse cx="200" cy="450" rx="90" ry="120"/>
    <!-- Hair -->
    <path d="M 120 110 Q 100 100 90 120 Q 85 140 95 150 Q 110 160 130 150 Q 150 140 160 130 Q 170 120 180 115 Q 190 110 200 115 Q 210 120 220 130 Q 230 140 250 150 Q 270 160 285 150 Q 295 140 290 120 Q 285 100 270 110 L 200 110 Z"/>
  </g>
</svg>

